<svg width="152" height="99" viewBox="0 0 152 99" fill="none" xmlns="http://www.w3.org/2000/svg">
<path d="M49.4689 18.1404L35.6286 89.3556L33.8164 98.6785L126.213 98.2241C130.358 98.2046 134.033 94.5185 135.368 89.0461L151.752 21.8109C152.766 17.6547 150.543 13.334 147.396 13.334L53.8801 13.4319C51.8134 13.4319 50.009 15.3631 49.4689 18.1404Z" fill="#E6E6E6"/>
<g opacity="0.5">
<path d="M49.4689 18.1404L35.6286 89.3556L33.8164 98.6785L126.213 98.2241C130.358 98.2046 134.033 94.5185 135.368 89.0461L151.752 21.8109C152.766 17.6547 150.543 13.334 147.396 13.334L53.8801 13.4319C51.8134 13.4319 50.009 15.3631 49.4689 18.1404Z" fill="#CCCCCC"/>
</g>
<path d="M117.352 84.5298L107.57 5.63301C107.167 2.4013 104.596 -0.0117089 101.558 4.2739e-05L80.105 0.0705528C78.5159 0.07447 76.9933 0.75215 75.8661 1.95082L65.6816 12.7859L6.01902 13.0992C2.375 13.1188 -0.427495 16.5699 0.0539384 20.4519L9.13856 93.371C9.54171 96.5988 12.1094 99.0079 15.1428 99L119.121 98.7964C130.703 99.0353 131.806 95.6156 131.806 95.6156C118.534 98.5574 117.352 84.5416 117.352 84.5337V84.5298Z" fill="#E6E6E6"/>
<g opacity="0.5">
<path d="M72.5182 68.739L69.0112 72.5074L42.0039 48.1932L45.5109 44.4248L72.5182 68.739Z" fill="white"/>
<path d="M67.5392 43.5869L71.4181 47.0772L46.9785 73.3461L43.1035 69.8558L67.5392 43.5869Z" fill="white"/>
</g>
</svg>
